<svg xmlns="http://www.w3.org/2000/svg" viewBox="0 0 717.09 297.13"><defs><style>.cls-1{fill:#2080fd;}</style></defs><g id="Camada_2" data-name="Camada 2"><g id="Camada_1-2" data-name="Camada 1"><path d="M717.07,146.66a94.26,94.26,0,0,1-5.68,35.3c-11.69,30.92-41.18,48.58-76.14,46.67-53.52-2.93-76.47-45.39-73-88.28,2.27-27.63,14.07-49.84,39-63.52,35.82-19.62,84.06-7.77,104.43,25.4C714.12,115.85,717.11,130.88,717.07,146.66ZM597.36,148c1.78,8.25,2.78,16.75,5.51,24.67,5.41,15.75,18.8,25.08,34.74,25.48,17.84.44,31.47-7.68,38.11-23.67a67.81,67.81,0,0,0,0-53.51c-6-14.44-17.44-22-33-22.76-16.45-.79-29.7,5.11-37.83,20.12C600,127.47,598.3,137.43,597.36,148Z"/><path d="M265.64,228.74c-27.34-1-51.54-9.6-65.81-34.41-17.25-30-17.83-61.42-.27-91.71C211,82.9,229.25,72.09,251.84,68.9c12.66-1.79,25.28-1.48,37.64,2,23.38,6.64,39.86,21.21,48,44.12a95.75,95.75,0,0,1,.41,64.71C327.85,208.89,306.24,224,276.3,228,272.84,228.45,269.32,228.49,265.64,228.74Zm41.9-78.53c-1.17-8.3-1.62-14.47-3-20.45-4.12-18.41-16.52-29.47-34.73-31.5-17.91-2-33.32,5.56-40.45,21.21-8.75,19.22-8.5,39,.82,57.9,7.45,15.11,20.74,21.54,37.4,20.64,16.35-.88,28.21-9,34.09-24.2C304.83,165.72,306,156.87,307.54,150.21Z"/><path d="M67.21,71.08H170.08v29.16H102.72v32.61h59.77v29.06H102.43v63.93H67.21Z"/><path d="M374,71.21h34.7V196.06h67.75V225.6H374Z"/><path d="M533.61,225.87H498.86V71.27h34.75Z"/><path class="cls-1" d="M.09,148.47Q.08,76.74,0,5C0,1.7.28,0,4.45,0Q118.39.2,232.34,0c4,0,5,1.21,4.88,5.05-.29,6.81-.3,13.67,0,20.48.18,3.67-1.09,4.39-4.5,4.38-27.48-.13-55-.07-82.46-.07-38.32,0-76.64.07-115-.11-4.44,0-5.54,1.18-5.54,5.56q.21,113.21,0,226.41c0,4.25.86,5.58,5.41,5.57,65.31-.16,130.62,0,195.92-.24,5.31,0,6.44,1.51,6.12,6.37a160.25,160.25,0,0,0,0,19c.19,3.74-.87,4.76-4.66,4.74-26.15-.17-52.31-.1-78.46-.1-49.65,0-99.3,0-148.94.11C1,297.15,0,296,0,291.91.14,244.1.09,196.28.09,148.47Z"/></g></g></svg>