<svg xmlns="http://www.w3.org/2000/svg" viewBox="0 0 237.24 297.15"><defs><style>.cls-1{fill:#fff;}.cls-2{fill:#040404;}</style></defs><g id="Camada_2" data-name="Camada 2"><g id="Camada_1-2" data-name="Camada 1"><g id="Camada_1-2-2" data-name="Camada 1-2"><path class="cls-1" d="M.09,148.47Q.08,76.74,0,5C0,1.7.28,0,4.45,0Q118.39.2,232.34,0c4,0,5,1.21,4.88,5.05-.29,6.81-.3,13.67,0,20.48.18,3.67-1.09,4.39-4.5,4.38-27.48-.13-55-.07-82.46-.07-38.32,0-76.64.07-115-.11-4.44,0-5.54,1.18-5.54,5.56q.21,113.21,0,226.41c0,4.25.86,5.58,5.41,5.57,65.31-.16,130.62,0,195.92-.24,5.31,0,6.44,1.51,6.12,6.37a158.48,158.48,0,0,0,0,19c.19,3.74-.87,4.76-4.66,4.74-26.15-.17-52.31-.1-78.46-.1q-74.48,0-148.94.11C1,297.15,0,296,0,291.91.14,244.1.09,196.28.09,148.47Z"/><path class="cls-2" d="M126.64,57.94c25.49,0,51,.08,76.45-.08,3.49,0,4.43.83,4.37,4.36-.17,10.58,0,10.59-10.58,10.59-49,0-97.92-.06-146.88.1-4.2,0-5.27-1-5.13-5.16.31-9.8.08-9.81,9.83-9.81Z"/><path class="cls-2" d="M125.6,114.27c-25.31,0-50.63-.06-75.94.07-3.39,0-4.94-.31-4.82-4.43.31-10.51,0-10.52,10.67-10.52,49,0,97.94.06,146.9-.11,4.31,0,5.2,1.2,5.06,5.24-.32,9.74-.11,9.75-9.92,9.75Z"/><path class="cls-2" d="M126.05,239.13c-25.49,0-51-.07-76.46.09-3.56,0-4.83-.59-4.73-4.52.26-10.48,0-10.48,10.73-10.48q73.47,0,146.93-.09c3.79,0,5.07.79,5,4.81-.27,10.19-.06,10.19-10.47,10.19Z"/><path class="cls-2" d="M125.55,156c-25.29,0-50.58-.11-75.87.11-4.08,0-4.88-1.23-4.79-5,.22-10.05,0-10.05,10-10.05,49.08,0,98.17.07,147.25-.12,4.48,0,5.47,1.15,5.31,5.43-.35,9.6-.11,9.61-9.56,9.61Z"/><path class="cls-2" d="M126.68,182.75c25.46,0,50.92.08,76.38-.08,3.48,0,4.46.84,4.4,4.37-.15,10.49,0,10.49-10.7,10.49q-73.38,0-146.76.13c-4.18,0-5.27-1-5.13-5.17.31-9.73.09-9.74,9.93-9.74Z"/></g></g></g></svg>